<svg xmlns="http://www.w3.org/2000/svg" width="512" height="512" viewBox="0 0 512 512" version="1.1">
	<path d="M 457.849 28.681 C 454.426 29.379, 449.244 31.156, 446.332 32.629 C 436.200 37.756, 431.823 43.356, 414.524 73.327 C 405.738 88.550, 397.075 102.868, 395.274 105.143 L 392 109.281 391.985 90.391 C 391.964 63.107, 389.319 54.331, 377.660 42.854 C 368.457 33.795, 357.881 30, 341.838 30 L 332.096 30 331.798 55.429 C 331.470 83.417, 331.495 83.301, 324.615 88.438 C 320.843 91.254, 313.157 91.254, 309.385 88.438 C 302.505 83.301, 302.530 83.417, 302.202 55.429 L 301.904 30 287 30 L 272.096 30 271.798 55.429 C 271.518 79.300, 271.374 81.027, 269.438 83.617 C 265.741 88.565, 262.244 90.500, 257 90.500 C 251.756 90.500, 248.259 88.565, 244.562 83.617 C 242.626 81.027, 242.482 79.300, 242.202 55.429 L 241.904 30 226.452 30 L 211 30 210.998 54.750 C 210.997 81.972, 210.600 84.084, 204.677 88.429 C 200.629 91.398, 191.643 91.315, 187.373 88.270 C 181.408 84.015, 181 81.860, 181 54.599 L 181 30 166 30 L 151 30 151 54.599 C 151 81.860, 150.592 84.015, 144.627 88.270 C 140.263 91.382, 131.737 91.382, 127.373 88.270 C 121.408 84.015, 121 81.860, 121 54.599 L 121 30 105.500 30 L 90 30 90 54.599 C 90 81.860, 89.592 84.015, 83.627 88.270 C 79.263 91.382, 70.737 91.382, 66.373 88.270 C 60.403 84.011, 60 81.874, 60 54.452 L 60 29.706 48.250 30.286 C 31.118 31.131, 22.399 34.656, 13.088 44.501 C 6.873 51.072, 2.197 60.587, 0.952 69.194 C 0.451 72.662, 0.031 85.736, 0.020 98.247 L 0 120.995 191.075 121.247 L 382.151 121.500 346.437 167 C 304.708 220.164, 301.639 224.242, 294.253 236.356 C 277.805 263.333, 267.037 294.866, 262.479 329.401 L 261.832 334.303 265.166 332.075 C 281.580 321.110, 299.305 319.555, 315.858 327.628 C 333.127 336.050, 343 352.266, 343 372.210 C 343 376.495, 343.262 380, 343.582 380 C 344.375 380, 351.601 374.189, 363.131 364.277 C 380.037 349.745, 400.969 323.702, 410.049 305.904 C 411.199 303.650, 412.296 301.963, 412.487 302.154 C 412.678 302.345, 412.460 304.526, 412.001 307.001 C 411.543 309.475, 410.854 315.131, 410.471 319.568 C 409.864 326.593, 410.039 328.156, 411.829 331.665 C 415.738 339.327, 423.506 341.870, 431.371 338.062 C 437.069 335.304, 439.555 330.359, 440.451 320 C 442.629 294.841, 451.826 268.108, 465.701 246.602 C 472.095 236.690, 479.961 227.051, 491.764 214.659 C 503.590 202.244, 506.604 197.901, 509.229 189.500 C 513.222 176.724, 511.029 161.909, 503.457 150.502 C 500.038 145.350, 497.331 142.958, 485.603 134.723 C 483.808 133.463, 484.344 132.286, 495.493 113.013 C 506.147 94.593, 510.594 85.336, 511.219 80.275 C 511.340 79.299, 511.691 87.950, 512 99.500 L 512.561 120.500 512.781 97.582 C 513.059 68.508, 511.597 59.061, 505.187 48.500 C 495.909 33.216, 476.158 24.947, 457.849 28.681 M 0.432 97 C 0.432 110.475, 0.574 115.987, 0.747 109.250 C 0.920 102.513, 0.920 91.487, 0.747 84.750 C 0.574 78.013, 0.432 83.525, 0.432 97 M 459.513 188.250 C 453.537 203.238, 448.046 216.963, 447.310 218.750 C 446.575 220.537, 446.150 222, 446.365 222 C 446.581 222, 449.225 218.738, 452.240 214.750 C 455.256 210.762, 462.747 202.100, 468.888 195.500 C 481.197 182.272, 482.886 179.006, 481.016 172.058 C 480.314 169.453, 478.545 166.910, 475.797 164.558 C 473.511 162.601, 471.356 161, 471.009 161 C 470.662 161, 465.488 173.262, 459.513 188.250 M 196 406 C 196 422.815, 195.897 422.624, 203.026 418.987 C 207.463 416.723, 211 410.962, 211 406 C 211 401.038, 207.463 395.277, 203.026 393.013 C 195.897 389.376, 196 389.185, 196 406" stroke="none" fill="black" fill-rule="evenodd"/>
</svg>